<svg id="Capa_1" enable-background="new 0 0 512 512" height="512" viewBox="0 0 512 512" width="512" xmlns="http://www.w3.org/2000/svg"><g><path d="m346 0h-180c-37.22 0-67.5 30.28-67.5 67.5v362c0 18.11 12.904 33.261 30 36.745v23.255c0 12.406 10.093 22.5 22.5 22.5 9.777 0 18.114-6.271 21.21-15h17.58c3.096 8.729 11.432 15 21.21 15 12.407 0 22.5-10.094 22.5-22.5v-22.5h45v22.5c0 12.406 10.093 22.5 22.5 22.5 9.777 0 18.114-6.271 21.21-15h17.58c3.096 8.729 11.432 15 21.21 15 12.407 0 22.5-10.094 22.5-22.5v-23.255c17.096-3.484 30-18.635 30-36.745v-362c0-37.22-30.28-67.5-67.5-67.5zm-195 497c-4.136 0-7.5-3.364-7.5-7.5v-22.5h15v22.5c0 4.136-3.364 7.5-7.5 7.5zm22.5-30h15v15h-15zm45 22.5c0 4.136-3.364 7.5-7.5 7.5s-7.5-3.364-7.5-7.5v-22.5h15zm82.5 7.5c-4.136 0-7.5-3.364-7.5-7.5v-22.5h15v22.5c0 4.136-3.364 7.5-7.5 7.5zm22.5-30h15v15h-15zm37.5 30c-4.136 0-7.5-3.364-7.5-7.5v-22.5h15v22.5c0 4.136-3.364 7.5-7.5 7.5zm37.5-67.5c0 12.406-10.093 22.5-22.5 22.5h-240c-12.407 0-22.5-10.094-22.5-22.5v-362c0-28.948 23.551-52.5 52.5-52.5h180c28.949 0 52.5 23.552 52.5 52.5z"/><path d="m346 30h-180c-20.678 0-37.5 16.822-37.5 37.5v60c0 4.143 3.358 7.5 7.5 7.5s7.5-3.357 7.5-7.5v-60c0-12.406 10.093-22.5 22.5-22.5h180c12.407 0 22.5 10.094 22.5 22.5v150c0 12.406-10.093 22.5-22.5 22.5h-180c-12.407 0-22.5-10.094-22.5-22.5v-60c0-4.143-3.358-7.5-7.5-7.5s-7.5 3.357-7.5 7.5v60c0 20.678 16.822 37.5 37.5 37.5h180c20.678 0 37.5-16.822 37.5-37.5v-150c0-20.678-16.822-37.5-37.5-37.5z"/><path d="m166 105h180c4.142 0 7.5-3.357 7.5-7.5v-30c0-4.143-3.358-7.5-7.5-7.5h-180c-4.142 0-7.5 3.357-7.5 7.5v30c0 4.143 3.358 7.5 7.5 7.5zm7.5-30h165v15h-165z"/><path d="m158.5 217.5c0 4.143 3.358 7.5 7.5 7.5h180c4.142 0 7.5-3.357 7.5-7.5v-30c0-4.143-3.358-7.5-7.5-7.5h-180c-4.142 0-7.5 3.357-7.5 7.5zm15-22.5h165v15h-165z"/><path d="m158.5 157.5c0 4.143 3.358 7.5 7.5 7.5h180c4.142 0 7.5-3.357 7.5-7.5v-30c0-4.143-3.358-7.5-7.5-7.5h-180c-4.142 0-7.5 3.357-7.5 7.5zm15-22.5h165v15h-165z"/></g></svg>